<svg xmlns="http://www.w3.org/2000/svg" viewBox="0 0 695 695">
  <g fill="#000" stroke="white" stroke-width="5" width="32" height="32">

    <!-- Center piece — centroid (512,500). M only is absolute, rest relative -->
    <path d="M334 321c5-14 8-15 14-1s11 25 22 37 11 15-7 13-24-2-43 0-16-1-9-9 18-27 23-40z"/>

    <!-- Blade 1 — tip (820,345), tail (492,844), rotation center (512,500) -->
    <path d="M649 195c154 314-158 556-370 461-143-85-77-306 139-242s268-104 231-219z"/>

    <!-- Blade 2 — blade 1 rotated 120° around (512,500) -->
    <path d="M321 694c-349-23-402-415-214-551 145-81 304 87 140 242s-44 284 74 309z"/>

    <!-- Blade 3 — blade 1 rotated 240° around (512,500) -->
    <path d="M53 161c195-291 560-141 584 90-2 166-226 219-279 0s-224-180-305-90z"/>

  </g>
</svg>